<?xml version="1.0" standalone="no"?>
<!DOCTYPE svg PUBLIC "-//W3C//DTD SVG 20010904//EN"
 "http://www.w3.org/TR/2001/REC-SVG-20010904/DTD/svg10.dtd">
<svg version="1.0" xmlns="http://www.w3.org/2000/svg"
 width="229.000000pt" height="229.000000pt" viewBox="0 0 229.000000 229.000000"
 preserveAspectRatio="xMidYMid meet">
<metadata>
Created by potrace 1.11, written by Peter Selinger 2001-2013
</metadata>
<g transform="translate(0.000000,229.000000) scale(0.100000,-0.100000)"
fill="#000000" stroke="none">
<path d="M339 1883 c-1 -10 -2 -47 -3 -83 l-1 -65 -167 0 c-183 0 -173 5 -117
-60 32 -37 353 -414 463 -545 44 -52 96 -113 116 -136 19 -22 46 -53 60 -70
112 -131 372 -437 432 -506 l23 -28 122 143 c67 78 136 160 155 181 18 22 64
76 101 120 38 45 81 95 96 111 40 44 195 226 281 330 41 50 77 92 80 95 3 3
41 48 85 100 44 52 82 97 85 100 19 18 130 152 130 158 0 4 -73 7 -163 7
l-162 0 -1 78 c-1 43 -3 79 -5 82 -2 2 -54 -7 -114 -21 -61 -13 -122 -26 -137
-29 -16 -3 -56 -12 -90 -20 -35 -8 -76 -17 -93 -20 -16 -3 -106 -23 -200 -43
l-170 -37 -220 48 c-121 26 -229 49 -240 51 -46 9 -311 68 -327 72 -12 4 -18
0 -19 -13z"/>
</g>
</svg>
